<svg width="1920" height="992" viewBox="0 0 1920 992" fill="none" xmlns="http://www.w3.org/2000/svg">
<g opacity="0.3">
<path opacity="0.6" d="M1956.76 425.009C1920.27 474.15 1833.59 478.863 1775.25 475.232C1692.99 470.079 1610.98 443.462 1549 397.783C1404.9 291.582 1262.93 177.032 1070.02 193.011C968.193 201.295 836.903 252.818 759.645 313.82C686.718 371.341 648.744 442.204 513.025 508.94C434.676 547.554 370.439 423.696 285.471 401.749C200.075 379.674 88.4382 440.125 6.7766 410.445C-87.024 376.342 -182.227 341.864 -285.101 336.402C-392.67 330.766 -495.399 360.483 -581.442 419.49" stroke="#FAA41A" stroke-width="0.75" stroke-miterlimit="10"/>
<path opacity="0.6" d="M1954.69 431.732C1917.38 480.676 1832.75 487.089 1773.98 484.242C1689.89 480.101 1610.31 454.118 1546.49 409.969C1529.15 397.819 1511.89 385.401 1494.55 373.09C1403.96 309.434 1319.04 244.518 1217.09 216.711C1170.13 203.55 1120.2 198.305 1070.19 201.279C1032.56 203.638 991.19 211.598 950.106 224.456C879.055 246.638 809.812 282.019 760.815 321.462C688.008 380.188 648.667 452.354 514.974 517.127C436.897 554.849 370.15 438.885 284.94 417.301C266.332 412.864 246.848 411.117 227.33 412.134C153.86 414.645 72.1294 443.687 7.96832 420.211C-8.53887 414.171 -25.072 408.113 -41.6702 402.162C-118.863 374.434 -198.429 349.852 -282.831 344.928C-389.968 338.57 -492.629 367.289 -578.214 427.434" stroke="#FAA41A" stroke-width="0.75" stroke-miterlimit="10"/>
<path opacity="0.6" d="M1952.63 438.477C1914.49 487.202 1831.88 495.277 1772.68 493.254C1688.67 490.025 1608.75 465.167 1544.02 422.131C1526.43 410.407 1508.97 398.267 1491.2 386.253C1398.26 323.452 1317.77 255.411 1216.64 227.174C1169.95 213.7 1120.32 207.753 1070.39 209.646C1029.44 211.713 988.92 218.902 950.207 230.968C879.048 252.713 810.818 288.823 762.083 329.096C689.374 389.049 648.493 462.512 517.043 525.285C439.099 562.207 369.971 454.226 284.467 432.646C265.925 428.244 246.578 426.288 227.126 426.85C154.132 427.643 73.3895 453.387 9.24158 429.768C-7.21689 423.724 -23.5827 417.612 -40.2101 411.603C-116.923 383.756 -196.47 358.787 -280.552 353.272C-387.299 346.255 -489.871 373.935 -574.979 435.155" stroke="#FAA41A" stroke-width="0.75" stroke-miterlimit="10"/>
<path opacity="0.6" d="M1950.57 445.201C1911.58 493.73 1831.04 503.464 1771.3 502.313C1691.77 500.769 1609.82 477.671 1541.37 434.349C1523.53 423.048 1505.86 411.21 1487.77 399.464C1392.18 337.622 1316.24 266.385 1216.03 237.71C1170.56 224.635 1122.08 216.821 1070.44 218.044C1029.54 219.175 988.914 225.749 950.138 237.514C880.072 258.88 816.189 292.812 763.162 336.826C690.573 397.984 648.395 473.008 518.996 533.532C441.394 569.82 369.696 469.596 283.91 448.159C265.428 443.816 246.227 441.653 226.861 441.733C154.309 440.992 74.5438 463.298 10.336 439.541C-6.07534 433.474 -22.4931 427.326 -38.9352 421.18C-114.954 393.116 -194.509 367.743 -278.29 361.697C-384.622 354.04 -487.113 380.58 -571.758 442.998" stroke="#FAA41A" stroke-width="0.75" stroke-miterlimit="10"/>
<path opacity="0.6" d="M1948.48 451.927C1908.69 500.257 1830.19 511.65 1770.12 511.336C1691.52 510.933 1609.64 489.024 1539 446.523C1520.98 435.643 1502.91 424.098 1484.6 412.654C1386.51 351.739 1315 277.316 1215.7 248.266C1170.52 234.924 1122.08 226.378 1070.75 226.484C1029.9 226.687 989.182 232.658 950.345 244.138C879.041 264.983 813.055 302.495 764.326 344.387C691.863 406.831 648.247 483.184 520.864 541.625C443.496 577.165 369.31 484.812 283.267 463.538C264.789 459.233 245.667 456.86 226.34 456.474C154.247 454.097 75.4643 473.045 11.221 449.149C-5.11132 443.049 -21.462 436.922 -37.8311 430.77C-113.012 402.458 -192.55 376.679 -276.002 370.141C-382.043 361.833 -484.351 387.285 -568.587 450.846" stroke="#FAA41A" stroke-width="0.75" stroke-miterlimit="10"/>
<path opacity="0.6" d="M1946.42 458.651C1905.8 506.783 1829.34 519.796 1768.86 520.365C1691.18 521.084 1609.39 500.362 1536.49 458.709C1518.21 448.254 1500.04 437.001 1481.31 425.833C1380.63 365.893 1313.54 288.264 1215.22 258.65C1170.17 245.035 1121.91 235.685 1070.91 234.751C1030.15 233.988 989.326 239.326 950.41 250.511C879.012 271.1 814.15 309.191 765.493 351.989C693.146 415.578 648.094 493.3 522.809 549.772C445.698 584.522 369.047 500.018 282.702 478.95C264.319 474.696 245.371 472.126 226.192 471.287C154.552 467.213 76.734 482.865 12.4779 458.809C-3.8371 452.72 -20.1347 446.542 -36.4148 440.275C-111.167 411.808 -190.59 385.635 -273.736 378.627C-379.198 369.585 -481.589 393.99 -565.319 458.665" stroke="#FAA41A" stroke-width="0.75" stroke-miterlimit="10"/>
<path opacity="0.6" d="M1944.35 465.375C1902.92 513.309 1828.5 527.942 1767.56 529.397C1690.83 531.215 1609.16 511.598 1534 470.873C1515.48 460.842 1497.07 449.912 1477.99 439.014C1374.74 380.068 1312.25 299.199 1214.76 269.175C1169.94 255.299 1121.77 245.07 1071.09 243.16C1030.41 241.493 989.493 246.246 950.497 257.166C879.02 277.376 815.289 316.126 766.674 359.771C694.449 424.586 647.959 503.637 524.792 558.078C447.891 592.083 368.775 515.428 282.175 494.542C263.829 490.323 245 487.527 225.929 486.19C154.72 480.442 77.8882 492.776 13.6241 468.619C-2.64222 462.526 -18.8775 456.31 -35.0818 449.969C-109.126 421.162 -188.507 394.581 -271.479 386.993C-376.594 377.376 -478.705 400.686 -562.099 466.509" stroke="#FAA41A" stroke-width="0.75" stroke-miterlimit="10"/>
<path opacity="0.6" d="M1942.28 472.038C1900.02 519.795 1827.64 536.008 1766.19 538.354C1690.45 541.268 1608.85 522.92 1531.43 483.002C1512.73 473.371 1494.04 462.766 1474.65 452.157C1368.78 394.188 1310.84 310.083 1214.24 279.623C1169.64 265.467 1121.56 254.381 1071.21 251.472C1030.64 248.87 989.607 252.987 950.492 263.585C878.937 283.437 816.31 322.828 767.763 367.318C695.728 433.292 647.778 513.714 526.757 566.163C450.063 599.381 368.485 530.616 281.606 509.915C263.297 505.738 244.584 502.748 225.632 500.974C154.878 493.55 79.0507 502.484 14.7543 478.228C-1.46646 472.091 -17.6741 465.812 -33.8685 459.389C-107.232 430.508 -186.792 403.536 -269.313 395.446C-374.015 385.169 -476.212 407.393 -558.978 474.34" stroke="#FAA41A" stroke-width="0.75" stroke-miterlimit="10"/>
<path opacity="0.6" d="M1940.22 478.823C1897.14 526.382 1826.82 544.172 1765 547.398C1690.14 551.314 1608.74 534.187 1528.97 495.265C1510.08 486.033 1491.13 475.753 1471.41 465.413C1362.91 408.463 1309.53 321.1 1213.83 290.205C1169.57 275.738 1121.48 263.843 1071.44 259.918C1032.21 256.957 990.893 259.123 950.641 270.092C879.032 289.564 817.511 329.617 769.007 374.954C697.023 442.199 647.605 523.892 528.704 574.33C452.238 606.721 368.201 545.865 281.04 525.327C262.804 521.19 244.25 517.977 225.478 515.706C155.178 506.586 80.3202 512.304 16.0031 487.787C-0.169006 481.646 -16.2884 475.346 -32.3551 468.887C-105.241 439.846 -184.636 412.476 -266.93 403.862C-371.217 392.945 -473.321 414.169 -555.636 482.173" stroke="#FAA41A" stroke-width="0.75" stroke-miterlimit="10"/>
<path opacity="0.6" d="M1938.13 485.549C1894.25 532.908 1825.97 552.278 1763.73 556.468C1689.8 561.466 1608.46 545.466 1526.48 507.429C1507.37 498.579 1488.23 488.638 1468.12 478.572C1356.97 422.601 1308.17 332.02 1213.36 300.67C1169.18 285.953 1121.33 273.128 1071.64 268.284C1032.12 264.456 990.842 265.889 950.718 276.626C878.979 295.703 818.616 336.434 770.177 382.595C698.315 451.066 647.408 534.072 530.675 582.495C454.42 614.14 367.918 561.134 280.502 540.778C262.049 536.472 243.397 533.357 225.06 530.519C155.215 519.723 81.3949 522.14 16.9951 497.508C0.870653 491.35 -15.154 485.009 -31.0788 478.484C-103.299 449.188 -182.773 421.439 -264.64 412.326C-368.49 400.746 -470.564 420.814 -552.414 490.037" stroke="#FAA41A" stroke-width="0.75" stroke-miterlimit="10"/>
<path opacity="0.6" d="M1936.07 492.273C1891.41 539.43 1825.11 560.303 1762.44 565.5C1689.4 571.52 1608.44 556.665 1523.97 519.635C1504.67 511.164 1485.16 501.597 1464.83 491.791C1351.02 436.902 1306.78 342.983 1212.77 311.204C1168.82 296.207 1121.04 282.485 1071.69 276.703C1031.99 272.039 990.697 272.704 950.674 283.17C878.856 301.869 819.623 343.258 771.227 390.267C699.485 459.943 647.111 544.219 532.502 590.692C456.526 621.525 367.514 576.433 279.795 556.263C261.321 551.999 242.771 548.632 224.646 545.373C155.253 532.861 82.3479 531.986 17.9872 507.229C1.91038 501.054 -14.1174 494.672 -30.0963 488.084C-101.355 458.55 -180.765 430.371 -262.405 420.734C-365.89 408.497 -467.73 427.493 -549.221 497.842" stroke="#FAA41A" stroke-width="0.75" stroke-miterlimit="10"/>
<path opacity="0.6" d="M1934.01 499.017C1888.48 545.98 1824.34 568.464 1761.1 574.556C1689.04 581.551 1608.23 567.858 1521.41 531.825C1501.9 523.736 1482.1 514.515 1461.46 504.976C1345.07 451.123 1305.42 353.903 1212.43 321.659C1168.7 306.401 1121.05 291.778 1071.99 285.042C1032.07 279.544 990.661 279.348 950.87 289.654C878.951 307.996 820.871 350.023 772.494 397.901C700.896 468.76 647.03 554.309 534.596 598.848C458.752 628.881 367.376 591.67 279.401 571.682C260.906 567.461 242.435 563.845 224.569 560.14C155.653 545.929 83.7377 541.776 19.3399 516.861C3.31076 510.668 -12.6223 504.245 -28.4593 497.592C-99.364 467.888 -178.853 439.331 -260.117 429.178C-363.238 416.284 -465.033 434.305 -545.977 505.683" stroke="#FAA41A" stroke-width="0.75" stroke-miterlimit="10"/>
<path opacity="0.6" d="M1931.94 505.721C1885.56 552.489 1823.42 576.433 1759.88 583.562C1688.75 591.535 1608.18 578.978 1519.01 543.961C1499.33 536.229 1479.25 527.396 1458.29 518.105C1339.02 465.391 1304.08 364.761 1211.96 332.164C1168.43 316.627 1120.9 301.083 1072.16 293.411C1032.03 287.099 990.717 286.228 950.972 296.185C878.868 314.057 821.974 356.82 773.665 405.543C702.186 477.607 646.828 564.428 536.543 607.015C460.927 636.22 367.068 606.941 278.837 587.115C260.322 582.956 241.978 579.087 224.226 574.968C155.761 559.021 84.8124 551.612 20.4018 526.536C4.42032 520.326 -11.4505 513.865 -27.2105 507.151C-97.4461 477.232 -176.894 448.266 -257.831 437.601C-360.519 423.985 -462.28 440.89 -542.758 513.507" stroke="#FAA41A" stroke-width="0.75" stroke-miterlimit="10"/>
<path opacity="0.6" d="M1929.88 512.445C1886.49 555.894 1825.26 584.546 1758.61 592.591C1688.39 601.505 1608.08 590.102 1516.48 556.169C1496.58 548.798 1476.21 540.332 1454.95 531.328C1333.22 479.661 1302.67 375.786 1211.5 342.649C1168.2 326.952 1120.86 310.461 1072.34 301.799C1031.99 294.614 990.763 292.987 951.047 302.699C878.92 320.268 823.077 363.616 774.835 413.184C703.478 486.474 646.625 574.528 538.441 615.186C463.005 643.567 366.712 622.215 278.201 602.574C259.69 598.455 241.423 594.337 223.882 589.776C155.869 572.112 85.8856 561.428 21.4654 536.231C5.53154 530.004 -10.2775 523.497 -25.9617 516.71C-95.4291 486.588 -174.934 457.222 -255.496 446.021C-357.761 431.866 -459.446 447.569 -539.442 521.322" stroke="#FAA41A" stroke-width="0.75" stroke-miterlimit="10"/>
<path opacity="0.6" d="M1927.81 519.169C1879.78 565.501 1821.7 592.383 1757.34 601.541C1688 611.417 1607.98 601.105 1513.95 568.214C1493.79 561.209 1473.19 553.227 1451.65 544.367C1327.03 494.001 1301.3 386.586 1211 353.015C1167.95 337.095 1120.64 319.671 1072.52 310.248C1031.96 302.23 990.646 299.86 951.13 309.293C878.918 326.424 824.183 370.453 776.006 420.846C704.745 495.343 646.422 584.627 540.489 623.386C465.23 650.902 366.504 637.498 277.835 618.032C259.278 613.957 241.136 609.545 223.759 604.587C156.263 585.1 87.2039 571.245 22.7726 545.906C6.86149 539.657 -8.8983 533.154 -24.4677 526.27C-93.5598 495.936 -173.021 466.182 -253.281 454.471C-355.135 439.635 -456.706 454.297 -536.293 529.192" stroke="#FAA41A" stroke-width="0.75" stroke-miterlimit="10"/>
<path opacity="0.6" d="M1925.73 525.995C1876.9 572.148 1820.82 600.49 1756.01 610.717C1687.6 621.512 1607.84 612.353 1511.43 580.623C1491.3 573.96 1470.18 566.302 1448.35 557.769C1321.12 508.441 1299.93 397.749 1210.55 363.741C1167.59 347.389 1120.5 329.036 1072.69 318.617C1031.94 309.663 990.669 306.621 951.207 315.827C879.019 332.632 825.315 377.308 777.182 428.548C706.042 504.271 646.137 594.632 542.441 631.613C467.329 658.207 366.25 652.825 277.18 633.553C258.945 629.635 240.993 624.937 223.396 619.477C156.354 598.294 88.2591 581.143 23.7907 555.646C7.95316 549.398 -7.73134 542.813 -23.2628 535.893C-91.4957 505.268 -171.038 475.116 -251.02 462.897C-352.46 447.4 -454.017 461.008 -533.074 537.015" stroke="#FAA41A" stroke-width="0.75" stroke-miterlimit="10"/>
<path opacity="0.6" d="M1923.66 532.639C1811.93 636.062 1677.86 657.435 1445.08 570.886C1315.2 522.477 1298.56 408.609 1210.1 374.143C1130.67 343.212 1036.13 302.911 951.276 322.26C772.125 362.983 714.708 581.03 544.404 639.678C453.922 670.852 321.603 668.032 223.093 634.181C140.228 605.709 56.4839 580.972 -21.9489 545.346C-175.557 475.616 -389.278 406.851 -529.855 544.838" stroke="#FAA41A" stroke-width="0.75" stroke-miterlimit="10"/>
<path opacity="0.6" d="M1923.92 509.941C1809.26 620.279 1667.01 635.619 1435.17 555.94C1304.54 511.073 1284.32 408.829 1197.07 382.264C1118.56 358.387 1037.95 333.219 944.612 355.934C765.974 399.431 701.529 603.032 533.505 652.104C439.587 679.522 310.279 672.939 214.451 638.612C128.032 607.669 53.78 569.443 -26.6642 530.089C-175.588 457.315 -389.111 389.809 -533.479 525.425" stroke="#FAA41A" stroke-width="0.75" stroke-miterlimit="10"/>
<path opacity="0.6" d="M1924.21 487.322C1806.6 604.717 1656.12 613.887 1425.27 541.095C1293.83 499.693 1269.95 409.118 1184.05 390.506C1106.39 373.647 1039.76 363.487 937.961 389.789C759.907 435.69 687.808 624.692 522.591 664.673C424.918 688.3 299.005 677.884 205.8 643.247C115.881 609.889 51.0738 558.198 -31.3882 515.035C-175.757 439.429 -388.97 372.75 -536.948 506.121" stroke="#FAA41A" stroke-width="0.75" stroke-miterlimit="10"/>
<path opacity="0.6" d="M1924.47 464.665C1803.94 589.034 1645.13 592.122 1415.38 526.188C1283.1 488.275 1255.46 409.297 1171.04 398.645C1094.07 388.859 1041.58 393.572 931.294 423.423C753.78 471.508 673.564 645.625 511.687 677.039C409.953 696.756 287.759 682.542 197.125 647.58C103.586 611.533 48.3031 546.755 -36.1132 499.658C-176.088 421.678 -388.84 355.549 -540.683 486.534" stroke="#FAA41A" stroke-width="0.75" stroke-miterlimit="10"/>
<path opacity="0.6" d="M1924.73 442.007C1801.29 573.289 1634.09 570.362 1405.48 511.282C1272.32 476.901 1240.86 409.726 1158.02 406.806C1081.66 404.119 1043.38 423.598 924.658 457.156C747.522 507.215 658.941 666.101 500.787 689.466C394.714 705.154 276.583 687.175 188.46 652.034C91.5512 613.359 45.5272 535.556 -40.8514 484.423C-176.554 404.08 -388.688 338.327 -544.285 467.099" stroke="#FAA41A" stroke-width="0.75" stroke-miterlimit="10"/>
<path opacity="0.6" d="M1924.99 419.35C1798.73 557.679 1623 548.605 1395.59 496.375C1261.52 465.57 1226.14 410.146 1144.99 415.027C1069.13 419.55 1045.13 453.628 918.001 490.93C741.28 542.819 644.034 686.094 489.893 701.973C379.261 713.325 265.428 691.745 179.793 656.468C79.4138 615.132 42.683 524.423 -45.5669 469.166C-177.092 386.791 -388.555 321.167 -547.887 447.644" stroke="#FAA41A" stroke-width="0.75" stroke-miterlimit="10"/>
<path opacity="0.6" d="M1925.27 396.691C1795.96 542.005 1611.88 527.074 1385.68 481.47C1250.7 454.26 1211.38 410.71 1131.96 423.148C1056.56 434.944 1046.9 483.433 911.337 524.605C734.944 578.168 628.905 705.437 478.991 714.359C363.64 721.226 254.291 696.254 171.153 660.94C67.3171 616.801 39.7753 513.416 -50.2727 454.03C-177.861 369.702 -388.419 304.047 -551.487 428.229" stroke="#FAA41A" stroke-width="0.75" stroke-miterlimit="10"/>
<path opacity="0.6" d="M1925.53 374.033C1793.33 526.38 1600.69 505.568 1375.88 466.577C1239.92 442.946 1196.71 411.388 1119.06 431.299C1044.07 450.533 1048.7 513.216 904.797 558.309C728.704 613.489 613.763 724.315 468.19 726.798C348.068 728.82 243.321 700.688 162.586 665.386C55.3712 618.518 36.9244 502.506 -54.9199 438.707C-178.716 352.742 -388.211 286.901 -554.99 408.786" stroke="#FAA41A" stroke-width="0.75" stroke-miterlimit="10"/>
<path opacity="0.6" d="M1925.8 351.376C1790.66 510.657 1589.5 484.143 1365.9 451.677C1228.96 431.789 1181.87 412.201 1105.93 439.468C1031.42 466.237 1050.28 542.956 898.04 592.052C722.214 648.749 598.392 742.786 457.194 739.252C332.251 736.109 232.151 705.077 153.825 669.867C43.2453 620.129 33.6885 491.688 -59.7312 423.478C-179.685 335.912 -388.125 269.765 -558.713 389.36" stroke="#FAA41A" stroke-width="0.75" stroke-miterlimit="10"/>
<path opacity="0.6" d="M1926.15 328.711C1788.09 494.967 1578.37 462.795 1356.08 436.724C1218.17 420.578 1167.31 413.033 1093 447.581C1019.05 481.98 1052.02 572.562 891.472 625.718C715.816 683.92 583.136 760.842 446.294 751.679C316.574 743.002 221.15 709.433 145.161 674.341C31.2867 621.685 30.5076 480.946 -64.4695 408.243C-180.793 319.174 -387.991 252.625 -562.315 369.925" stroke="#FAA41A" stroke-width="0.75" stroke-miterlimit="10"/>
<path opacity="0.6" d="M1926.34 306.059C1785.32 479.232 1567.03 441.544 1346.08 421.886C1207.2 409.523 1152.66 414.034 1079.88 455.81C1006.58 497.871 1053.53 602.185 884.719 659.5C709.364 719.035 568.219 778.548 435.396 764.125C301.039 749.52 210.145 713.748 136.518 678.773C19.3688 623.137 27.2116 470.294 -69.1848 392.987C-182.017 302.506 -387.83 235.503 -565.916 350.49" stroke="#FAA41A" stroke-width="0.75" stroke-miterlimit="10"/>
<path opacity="0.6" d="M1926.6 283.402C1782.68 463.628 1555.79 420.347 1336.2 406.979C1196.3 398.463 1138.32 414.99 1066.88 463.97C994.339 513.745 1055.09 631.704 878.081 693.213C702.884 754.112 553.155 795.942 424.498 776.572C285.594 755.625 199.284 718.012 127.902 683.223C7.49479 624.525 23.7756 459.735 -73.9232 377.752C-183.356 285.949 -387.696 218.363 -569.541 331.056" stroke="#FAA41A" stroke-width="0.75" stroke-miterlimit="10"/>
<path opacity="0.6" d="M1926.85 260.664C1779.96 447.868 1544.55 399.169 1326.28 391.993C1185.39 387.362 1123.84 415.896 1053.84 472.05C982.164 529.552 1056.59 661.065 871.415 726.867C696.37 789.07 538.442 813.125 413.569 788.939C270.5 761.217 188.244 722.189 119.182 687.6C-4.31231 625.827 20.2228 449.245 -78.6369 362.515C-184.79 269.419 -387.658 201.23 -573.142 311.621" stroke="#FAA41A" stroke-width="0.75" stroke-miterlimit="10"/>
<path opacity="0.6" d="M1927.12 238.087C1777.35 432.202 1533.36 378.21 1316.41 377.166C1174.53 376.501 1109.56 416.949 1040.82 480.292C970.025 545.519 1058.12 690.505 864.76 760.662C689.841 824.151 523.992 830.227 402.671 801.386C255.675 766.484 177.33 726.416 110.516 692.054C-16.0515 627.062 16.5529 438.825 -83.3477 347.319C-186.319 252.938 -387.402 184.081 -576.745 292.166" stroke="#FAA41A" stroke-width="0.75" stroke-miterlimit="10"/>
<path opacity="0.6" d="M1927.41 215.448C1774.71 416.598 1522.16 357.252 1306.5 362.281C1163.66 365.519 1095.25 417.882 1027.8 488.473C958.05 561.372 1059.56 719.81 858.1 794.396C683.28 859.133 509.82 847.125 391.777 813.893C241.198 771.52 166.445 730.681 101.883 696.606C-27.6994 628.209 12.6931 428.481 -88.089 332.044C-187.968 236.486 -387.267 166.941 -580.346 272.731" stroke="#FAA41A" stroke-width="0.75" stroke-miterlimit="10"/>
<path opacity="0.6" d="M1927.62 192.795C1772 400.919 1510.97 336.374 1296.55 347.379C1152.78 354.74 1081.11 418.802 1014.74 496.636C945.977 577.232 1060.95 749.039 851.463 828.108C676.716 894.074 495.935 863.939 380.782 826.347C226.979 776.091 155.408 734.898 93.1209 701.068C-39.2531 629.309 8.7649 418.204 -92.8029 316.807C-189.71 220.102 -387.109 149.799 -583.972 253.297" stroke="#FAA41A" stroke-width="0.75" stroke-miterlimit="10"/>
<path opacity="0.6" d="M1927.93 170.133C1769.38 385.192 1499.9 315.466 1286.7 332.387C1142.02 343.871 1067.01 419.597 1001.76 504.713C934.119 593.035 1062.41 778.201 844.803 861.843C670.102 929 482.392 880.726 369.981 838.786C213.397 780.347 144.756 739.024 84.5546 705.534C-50.7239 630.219 4.64668 408.002 -97.5411 301.572C-191.41 203.614 -386.974 132.658 -587.573 233.862" stroke="#FAA41A" stroke-width="0.75" stroke-miterlimit="10"/>
</g>
</svg>
